<svg width="100" height="100" viewBox="0 0 100 100" fill="none" xmlns="http://www.w3.org/2000/svg">
<g id="antd">
<g id="antd_2" clip-path="url(#clip0_1902_141)">
<path id="Shape" d="M45.794 2.08749L2.08996 45.7556C-0.259642 48.1033 -0.259642 51.8952 2.08996 54.2428L45.794 97.911C48.1436 100.259 51.9386 100.259 54.2882 97.911L72.6127 79.6015C74.717 77.499 74.717 74.0902 72.6127 71.9877C70.5085 69.8852 67.0968 69.8852 64.9926 71.9877L51.1009 85.8679C50.5161 86.4522 49.6286 86.4522 49.0437 85.8679L14.1429 50.9958C13.5581 50.4115 13.5581 49.5246 14.1429 48.9403L49.0437 14.0682C49.6286 13.4838 50.5161 13.4838 51.1009 14.0682L64.9926 27.9484C67.0968 30.0509 70.5085 30.0509 72.6127 27.9484C74.717 25.8459 74.717 22.437 72.6127 20.3345L54.2903 2.0271C51.931 -0.269765 48.1346 -0.25117 45.794 2.08749Z" fill="url(#paint0_linear_1902_141)"/>
<path id="Shape_2" d="M45.794 2.08749L2.08996 45.7556C-0.259642 48.1033 -0.259642 51.8952 2.08996 54.2428L45.794 97.911C48.1436 100.259 51.9386 100.259 54.2882 97.911L72.6127 79.6015C74.717 77.499 74.717 74.0902 72.6127 71.9877C70.5085 69.8852 67.0968 69.8852 64.9926 71.9877L51.1009 85.8679C50.5161 86.4522 49.6286 86.4522 49.0437 85.8679L14.1429 50.9958C13.5581 50.4115 13.5581 49.5246 14.1429 48.9403L49.0437 14.0682C50.4999 12.8128 52.8758 10.2701 56.3648 9.67545C58.9578 9.23349 61.7926 10.2062 64.8693 12.5937C62.8123 10.5384 59.286 7.01624 54.2903 2.0271C51.931 -0.269765 48.1346 -0.25117 45.794 2.08749Z" fill="url(#paint1_linear_1902_141)"/>
<path id="Shape_3" d="M76.8429 67.9264C78.9472 70.0289 82.3588 70.0289 84.4631 67.9264L97.9801 54.4205C100.33 52.0728 100.33 48.2809 97.9804 45.9335L84.3455 32.3582C82.2363 30.2582 78.8236 30.2612 76.7181 32.365C74.6138 34.4675 74.6138 37.8763 76.7181 39.9788L85.9271 49.1803C86.512 49.7646 86.512 50.6515 85.9271 51.2358L76.8429 60.3126C74.7387 62.4151 74.7387 65.8239 76.8429 67.9264Z" fill="url(#paint2_linear_1902_141)"/>
<path id="Combined-Shape" d="M50.2598 62.0075C56.7768 62.0075 62.0599 56.7288 62.0599 50.2172C62.0599 43.7055 56.7768 38.4268 50.2598 38.4268C43.7428 38.4268 38.4597 43.7055 38.4597 50.2172C38.4597 56.7288 43.7428 62.0075 50.2598 62.0075Z" fill="url(#paint3_linear_1902_141)"/>
</g>
</g>
<defs>
<linearGradient id="paint0_linear_1902_141" x1="4587.4" y1="0.319093" x2="8740.56" y2="2536.59" gradientUnits="userSpaceOnUse">
<stop stop-color="#4285EB"/>
<stop offset="1" stop-color="#2EC7FF"/>
</linearGradient>
<linearGradient id="paint1_linear_1902_141" x1="5144.46" y1="0.318791" x2="3093.18" y2="10601.9" gradientUnits="userSpaceOnUse">
<stop stop-color="#29CDFF"/>
<stop offset="0.378601" stop-color="#148EFF"/>
<stop offset="1" stop-color="#0A60FF"/>
</linearGradient>
<linearGradient id="paint2_linear_1902_141" x1="1789.71" y1="-471.558" x2="-879.322" y2="3702.58" gradientUnits="userSpaceOnUse">
<stop stop-color="#FA816E"/>
<stop offset="0.414726" stop-color="#F74A5C"/>
<stop offset="1" stop-color="#F51D2C"/>
</linearGradient>
<linearGradient id="paint3_linear_1902_141" x1="1646.29" y1="-803.185" x2="758.228" y2="2749.21" gradientUnits="userSpaceOnUse">
<stop stop-color="#FA8E7D"/>
<stop offset="0.512635" stop-color="#F74A5C"/>
<stop offset="1" stop-color="#F51D2C"/>
</linearGradient>
<clipPath id="clip0_1902_141">
<rect width="100" height="100" fill="white" transform="translate(0 -0.000976562)"/>
</clipPath>
</defs>
</svg>
