<svg width="120" height="32" viewBox="0 0 120 32" fill="none" xmlns="http://www.w3.org/2000/svg">
    <path fill-rule="evenodd" clip-rule="evenodd" d="M0 17.743C0 9.869 6.362 3.485 14.21 3.485h8.316V9.4H14.21c-4.592 0-8.315 3.735-8.315 8.343 0 4.608 3.723 8.343 8.316 8.343 4.592 0 8.315-3.735 8.315-8.343V9.4h5.895v8.343C28.421 25.617 22.06 32 14.211 32 6.361 32 0 25.617 0 17.743zM36.842 30.732V5.386H49c4.97 0 9 4.042 9 9.03a9.033 9.033 0 0 1-5.029 8.105 5.469 5.469 0 0 0 4.453 2.297H58v5.914h-.576a11.368 11.368 0 0 1-10.509-7.054l-.096-.233h-4.083v7.287h-5.894zM42.737 11.3H49a3.11 3.11 0 0 1 3.105 3.115A3.11 3.11 0 0 1 49 17.531h-6.264V11.3z" fill="#0CA"/>
    <path d="M82.42 5.386v25.346h5.895V5.386h-5.894zM91.473 30.732V5.386h5.895v25.346h-5.895zM106.421 8.343a2.953 2.953 0 0 0-2.948-2.957 2.952 2.952 0 0 0-2.947 2.957V11.3h2.947a2.953 2.953 0 0 0 2.948-2.957zM100.526 30.732V14.046h5.895v16.686h-5.895zM109.579 5.386V23.55c0 3.966 3.204 7.181 7.158 7.181H120v-5.914h-3.263a1.266 1.266 0 0 1-1.264-1.267v-6.337H120V11.3h-4.527V5.386h-5.894z" fill="#0CA"/>
    <path fill-rule="evenodd" clip-rule="evenodd" d="M69.684 11.511c5.184 0 9.407 4.133 9.574 9.294h.005v9.927h-5.895v-.736a9.523 9.523 0 0 1-3.684.736c-5.29 0-9.579-4.302-9.579-9.61s4.289-9.61 9.579-9.61zm0 13.307a3.69 3.69 0 0 0 3.684-3.696 3.69 3.69 0 0 0-3.684-3.697A3.69 3.69 0 0 0 66 21.122a3.69 3.69 0 0 0 3.684 3.696z" fill="#0CA"/>
    <path d="M28.58 6.653a3.321 3.321 0 0 0 3.315-3.326A3.321 3.321 0 0 0 28.58 0a3.321 3.321 0 0 0-3.315 3.327v3.326h3.316z" fill="#fff"/>
</svg>
